<svg width="143" height="31" viewBox="0 0 143 31" fill="none" xmlns="http://www.w3.org/2000/svg">
<path d="M5.25 10.5938V24H0.734375V7.09375H4.96875L5.25 10.5938ZM4.625 14.9531H3.375C3.375 13.776 3.51562 12.6927 3.79688 11.7031C4.08854 10.7031 4.51042 9.83854 5.0625 9.10938C5.625 8.36979 6.31771 7.79688 7.14062 7.39062C7.96354 6.98438 8.91667 6.78125 10 6.78125C10.75 6.78125 11.4375 6.89583 12.0625 7.125C12.6875 7.34375 13.224 7.69271 13.6719 8.17188C14.1302 8.64062 14.4844 9.25521 14.7344 10.0156C14.9844 10.7656 15.1094 11.6667 15.1094 12.7188V24H10.6094V13.2188C10.6094 12.4479 10.5052 11.8542 10.2969 11.4375C10.0885 11.0208 9.79167 10.7292 9.40625 10.5625C9.03125 10.3958 8.57812 10.3125 8.04688 10.3125C7.46354 10.3125 6.95312 10.4323 6.51562 10.6719C6.08854 10.9115 5.73438 11.2448 5.45312 11.6719C5.17188 12.0885 4.96354 12.5781 4.82812 13.1406C4.69271 13.7031 4.625 14.3073 4.625 14.9531ZM14.6875 14.4375L13.0781 14.6406C13.0781 13.5365 13.2135 12.5104 13.4844 11.5625C13.7656 10.6146 14.1771 9.78125 14.7188 9.0625C15.2708 8.34375 15.9531 7.78646 16.7656 7.39062C17.5781 6.98438 18.5156 6.78125 19.5781 6.78125C20.3906 6.78125 21.1302 6.90104 21.7969 7.14062C22.4635 7.36979 23.0312 7.73958 23.5 8.25C23.9792 8.75 24.3438 9.40625 24.5938 10.2188C24.8542 11.0312 24.9844 12.026 24.9844 13.2031V24H20.4688V13.2031C20.4688 12.4219 20.3646 11.8281 20.1562 11.4219C19.9583 11.0052 19.6667 10.7188 19.2812 10.5625C18.9062 10.3958 18.4583 10.3125 17.9375 10.3125C17.3958 10.3125 16.9219 10.4219 16.5156 10.6406C16.1094 10.849 15.7708 11.1406 15.5 11.5156C15.2292 11.8906 15.026 12.3281 14.8906 12.8281C14.7552 13.3177 14.6875 13.8542 14.6875 14.4375ZM33.4844 22.0938L37.9688 7.09375H42.7969L36 26.5469C35.8542 26.974 35.6562 27.4323 35.4062 27.9219C35.1667 28.4115 34.8385 28.875 34.4219 29.3125C34.0156 29.7604 33.5 30.125 32.875 30.4062C32.2604 30.6875 31.5052 30.8281 30.6094 30.8281C30.1823 30.8281 29.8333 30.8021 29.5625 30.75C29.2917 30.6979 28.9688 30.625 28.5938 30.5312V27.2344C28.7083 27.2344 28.8281 27.2344 28.9531 27.2344C29.0781 27.2448 29.1979 27.25 29.3125 27.25C29.9062 27.25 30.3906 27.1823 30.7656 27.0469C31.1406 26.9115 31.4427 26.7031 31.6719 26.4219C31.901 26.151 32.0833 25.7969 32.2188 25.3594L33.4844 22.0938ZM31.6094 7.09375L35.2812 19.3438L35.9219 24.1094L32.8594 24.4375L26.7812 7.09375H31.6094Z" fill="#00B37E"/>
<path d="M58.0625 16.4531H62.7344C62.6406 17.9844 62.2188 19.3438 61.4688 20.5312C60.7292 21.7188 59.6927 22.6458 58.3594 23.3125C57.0365 23.9792 55.4427 24.3125 53.5781 24.3125C52.1198 24.3125 50.8125 24.0625 49.6562 23.5625C48.5 23.0521 47.5104 22.3229 46.6875 21.375C45.875 20.4271 45.2552 19.2812 44.8281 17.9375C44.401 16.5938 44.1875 15.0885 44.1875 13.4219V11.8438C44.1875 10.1771 44.4062 8.67188 44.8438 7.32812C45.2917 5.97396 45.9271 4.82292 46.75 3.875C47.5833 2.92708 48.5781 2.19792 49.7344 1.6875C50.8906 1.17708 52.1823 0.921875 53.6094 0.921875C55.5052 0.921875 57.1042 1.26562 58.4062 1.95312C59.7188 2.64062 60.7344 3.58854 61.4531 4.79688C62.1823 6.00521 62.6198 7.38021 62.7656 8.92188H58.0781C58.026 8.00521 57.8438 7.22917 57.5312 6.59375C57.2188 5.94792 56.7448 5.46354 56.1094 5.14062C55.4844 4.80729 54.651 4.64062 53.6094 4.64062C52.8281 4.64062 52.1458 4.78646 51.5625 5.07812C50.9792 5.36979 50.4896 5.8125 50.0938 6.40625C49.6979 7 49.401 7.75 49.2031 8.65625C49.0156 9.55208 48.9219 10.6042 48.9219 11.8125V13.4219C48.9219 14.599 49.0104 15.6354 49.1875 16.5312C49.3646 17.4167 49.6354 18.1667 50 18.7812C50.375 19.3854 50.8542 19.8438 51.4375 20.1562C52.0312 20.4583 52.7448 20.6094 53.5781 20.6094C54.5573 20.6094 55.3646 20.4531 56 20.1406C56.6354 19.8281 57.1198 19.3646 57.4531 18.75C57.7969 18.1354 58 17.3698 58.0625 16.4531ZM70.2812 0V24H65.7656V0H70.2812ZM78.75 7.09375V24H74.2344V7.09375H78.75ZM73.9531 2.6875C73.9531 2.03125 74.1823 1.48958 74.6406 1.0625C75.099 0.635417 75.7135 0.421875 76.4844 0.421875C77.2448 0.421875 77.8542 0.635417 78.3125 1.0625C78.7812 1.48958 79.0156 2.03125 79.0156 2.6875C79.0156 3.34375 78.7812 3.88542 78.3125 4.3125C77.8542 4.73958 77.2448 4.95312 76.4844 4.95312C75.7135 4.95312 75.099 4.73958 74.6406 4.3125C74.1823 3.88542 73.9531 3.34375 73.9531 2.6875ZM90.25 24.3125C88.9375 24.3125 87.7604 24.1042 86.7188 23.6875C85.6771 23.2604 84.7917 22.6719 84.0625 21.9219C83.3438 21.1719 82.7917 20.3021 82.4062 19.3125C82.0208 18.3125 81.8281 17.25 81.8281 16.125V15.5C81.8281 14.2188 82.0104 13.0469 82.375 11.9844C82.7396 10.9219 83.2604 10 83.9375 9.21875C84.625 8.4375 85.4583 7.83854 86.4375 7.42188C87.4167 6.99479 88.5208 6.78125 89.75 6.78125C90.9479 6.78125 92.0104 6.97917 92.9375 7.375C93.8646 7.77083 94.6406 8.33333 95.2656 9.0625C95.901 9.79167 96.3802 10.6667 96.7031 11.6875C97.026 12.6979 97.1875 13.8229 97.1875 15.0625V16.9375H83.75V13.9375H92.7656V13.5938C92.7656 12.9688 92.651 12.4115 92.4219 11.9219C92.2031 11.4219 91.8698 11.026 91.4219 10.7344C90.974 10.4427 90.401 10.2969 89.7031 10.2969C89.1094 10.2969 88.599 10.4271 88.1719 10.6875C87.7448 10.9479 87.3958 11.3125 87.125 11.7812C86.8646 12.25 86.6667 12.8021 86.5312 13.4375C86.4062 14.0625 86.3438 14.75 86.3438 15.5V16.125C86.3438 16.8021 86.4375 17.4271 86.625 18C86.8229 18.5729 87.099 19.0677 87.4531 19.4844C87.8177 19.901 88.2552 20.224 88.7656 20.4531C89.2865 20.6823 89.875 20.7969 90.5312 20.7969C91.3438 20.7969 92.099 20.6406 92.7969 20.3281C93.5052 20.0052 94.1146 19.5208 94.625 18.875L96.8125 21.25C96.4583 21.7604 95.974 22.25 95.3594 22.7188C94.7552 23.1875 94.026 23.5729 93.1719 23.875C92.3177 24.1667 91.3438 24.3125 90.25 24.3125ZM104.156 10.7031V24H99.6562V7.09375H103.875L104.156 10.7031ZM103.5 14.9531H102.281C102.281 13.7031 102.443 12.5781 102.766 11.5781C103.089 10.5677 103.542 9.70833 104.125 9C104.708 8.28125 105.401 7.73438 106.203 7.35938C107.016 6.97396 107.922 6.78125 108.922 6.78125C109.714 6.78125 110.438 6.89583 111.094 7.125C111.75 7.35417 112.312 7.71875 112.781 8.21875C113.26 8.71875 113.625 9.38021 113.875 10.2031C114.135 11.026 114.266 12.0312 114.266 13.2188V24H109.734V13.2031C109.734 12.4531 109.63 11.8698 109.422 11.4531C109.214 11.0365 108.906 10.7448 108.5 10.5781C108.104 10.401 107.615 10.3125 107.031 10.3125C106.427 10.3125 105.901 10.4323 105.453 10.6719C105.016 10.9115 104.651 11.2448 104.359 11.6719C104.078 12.0885 103.865 12.5781 103.719 13.1406C103.573 13.7031 103.5 14.3073 103.5 14.9531ZM125.969 7.09375V10.2812H116.125V7.09375H125.969ZM118.562 2.92188H123.062V18.9062C123.062 19.3958 123.125 19.7708 123.25 20.0312C123.385 20.2917 123.583 20.474 123.844 20.5781C124.104 20.6719 124.432 20.7188 124.828 20.7188C125.109 20.7188 125.359 20.7083 125.578 20.6875C125.807 20.6562 126 20.625 126.156 20.5938L126.172 23.9062C125.786 24.0312 125.37 24.1302 124.922 24.2031C124.474 24.276 123.979 24.3125 123.438 24.3125C122.448 24.3125 121.583 24.151 120.844 23.8281C120.115 23.4948 119.552 22.9635 119.156 22.2344C118.76 21.5052 118.562 20.5469 118.562 19.3594V2.92188ZM137.672 19.3281C137.672 19.0052 137.578 18.7135 137.391 18.4531C137.203 18.1927 136.854 17.9531 136.344 17.7344C135.844 17.5052 135.12 17.2969 134.172 17.1094C133.318 16.9219 132.521 16.6875 131.781 16.4062C131.052 16.1146 130.417 15.7656 129.875 15.3594C129.344 14.9531 128.927 14.474 128.625 13.9219C128.323 13.3594 128.172 12.7188 128.172 12C128.172 11.2917 128.323 10.625 128.625 10C128.938 9.375 129.38 8.82292 129.953 8.34375C130.536 7.85417 131.245 7.47396 132.078 7.20312C132.922 6.92188 133.87 6.78125 134.922 6.78125C136.391 6.78125 137.651 7.01562 138.703 7.48438C139.766 7.95312 140.578 8.59896 141.141 9.42188C141.714 10.2344 142 11.1615 142 12.2031H137.5C137.5 11.7656 137.406 11.375 137.219 11.0312C137.042 10.6771 136.76 10.401 136.375 10.2031C136 9.99479 135.51 9.89062 134.906 9.89062C134.406 9.89062 133.974 9.97917 133.609 10.1562C133.245 10.3229 132.964 10.5521 132.766 10.8438C132.578 11.125 132.484 11.4375 132.484 11.7812C132.484 12.0417 132.536 12.276 132.641 12.4844C132.755 12.6823 132.938 12.8646 133.188 13.0312C133.438 13.1979 133.76 13.3542 134.156 13.5C134.562 13.6354 135.062 13.7604 135.656 13.875C136.875 14.125 137.964 14.4531 138.922 14.8594C139.88 15.2552 140.641 15.7969 141.203 16.4844C141.766 17.1615 142.047 18.0521 142.047 19.1562C142.047 19.9062 141.88 20.5938 141.547 21.2188C141.214 21.8438 140.734 22.3906 140.109 22.8594C139.484 23.3177 138.734 23.6771 137.859 23.9375C136.995 24.1875 136.021 24.3125 134.938 24.3125C133.365 24.3125 132.031 24.0312 130.938 23.4688C129.854 22.9062 129.031 22.1927 128.469 21.3281C127.917 20.4531 127.641 19.5573 127.641 18.6406H131.906C131.927 19.2552 132.083 19.75 132.375 20.125C132.677 20.5 133.057 20.7708 133.516 20.9375C133.984 21.1042 134.49 21.1875 135.031 21.1875C135.615 21.1875 136.099 21.1094 136.484 20.9531C136.87 20.7865 137.161 20.5677 137.359 20.2969C137.568 20.0156 137.672 19.6927 137.672 19.3281Z" fill="#E1E1E6"/>
</svg>
