<svg width="47" height="25" viewBox="0 0 47 25" fill="none" xmlns="http://www.w3.org/2000/svg">
<path d="M5.25 10.5938V24H0.734375V7.09375H4.96875L5.25 10.5938ZM4.625 14.9531H3.375C3.375 13.776 3.51562 12.6927 3.79688 11.7031C4.08854 10.7031 4.51042 9.83854 5.0625 9.10938C5.625 8.36979 6.31771 7.79688 7.14062 7.39062C7.96354 6.98438 8.91667 6.78125 10 6.78125C10.75 6.78125 11.4375 6.89583 12.0625 7.125C12.6875 7.34375 13.224 7.69271 13.6719 8.17188C14.1302 8.64062 14.4844 9.25521 14.7344 10.0156C14.9844 10.7656 15.1094 11.6667 15.1094 12.7188V24H10.6094V13.2188C10.6094 12.4479 10.5052 11.8542 10.2969 11.4375C10.0885 11.0208 9.79167 10.7292 9.40625 10.5625C9.03125 10.3958 8.57812 10.3125 8.04688 10.3125C7.46354 10.3125 6.95312 10.4323 6.51562 10.6719C6.08854 10.9115 5.73438 11.2448 5.45312 11.6719C5.17188 12.0885 4.96354 12.5781 4.82812 13.1406C4.69271 13.7031 4.625 14.3073 4.625 14.9531ZM14.6875 14.4375L13.0781 14.6406C13.0781 13.5365 13.2135 12.5104 13.4844 11.5625C13.7656 10.6146 14.1771 9.78125 14.7188 9.0625C15.2708 8.34375 15.9531 7.78646 16.7656 7.39062C17.5781 6.98438 18.5156 6.78125 19.5781 6.78125C20.3906 6.78125 21.1302 6.90104 21.7969 7.14062C22.4635 7.36979 23.0312 7.73958 23.5 8.25C23.9792 8.75 24.3438 9.40625 24.5938 10.2188C24.8542 11.0312 24.9844 12.026 24.9844 13.2031V24H20.4688V13.2031C20.4688 12.4219 20.3646 11.8281 20.1562 11.4219C19.9583 11.0052 19.6667 10.7188 19.2812 10.5625C18.9062 10.3958 18.4583 10.3125 17.9375 10.3125C17.3958 10.3125 16.9219 10.4219 16.5156 10.6406C16.1094 10.849 15.7708 11.1406 15.5 11.5156C15.2292 11.8906 15.026 12.3281 14.8906 12.8281C14.7552 13.3177 14.6875 13.8542 14.6875 14.4375Z" fill="#00B37E"/>
<path d="M41.9375 16.4531H46.6094C46.5156 17.9844 46.0938 19.3438 45.3438 20.5312C44.6042 21.7188 43.5677 22.6458 42.2344 23.3125C40.9115 23.9792 39.3177 24.3125 37.4531 24.3125C35.9948 24.3125 34.6875 24.0625 33.5312 23.5625C32.375 23.0521 31.3854 22.3229 30.5625 21.375C29.75 20.4271 29.1302 19.2812 28.7031 17.9375C28.276 16.5938 28.0625 15.0885 28.0625 13.4219V11.8438C28.0625 10.1771 28.2812 8.67188 28.7188 7.32812C29.1667 5.97396 29.8021 4.82292 30.625 3.875C31.4583 2.92708 32.4531 2.19792 33.6094 1.6875C34.7656 1.17708 36.0573 0.921875 37.4844 0.921875C39.3802 0.921875 40.9792 1.26562 42.2812 1.95312C43.5938 2.64062 44.6094 3.58854 45.3281 4.79688C46.0573 6.00521 46.4948 7.38021 46.6406 8.92188H41.9531C41.901 8.00521 41.7188 7.22917 41.4062 6.59375C41.0938 5.94792 40.6198 5.46354 39.9844 5.14062C39.3594 4.80729 38.526 4.64062 37.4844 4.64062C36.7031 4.64062 36.0208 4.78646 35.4375 5.07812C34.8542 5.36979 34.3646 5.8125 33.9688 6.40625C33.5729 7 33.276 7.75 33.0781 8.65625C32.8906 9.55208 32.7969 10.6042 32.7969 11.8125V13.4219C32.7969 14.599 32.8854 15.6354 33.0625 16.5312C33.2396 17.4167 33.5104 18.1667 33.875 18.7812C34.25 19.3854 34.7292 19.8438 35.3125 20.1562C35.9062 20.4583 36.6198 20.6094 37.4531 20.6094C38.4323 20.6094 39.2396 20.4531 39.875 20.1406C40.5104 19.8281 40.9948 19.3646 41.3281 18.75C41.6719 18.1354 41.875 17.3698 41.9375 16.4531Z" fill="#E1E1E6"/>
</svg>
